<?xml version="1.0" encoding="utf-8"?>
<!-- Generator: Adobe Illustrator 24.0.0, SVG Export Plug-In . SVG Version: 6.00 Build 0)  -->
<svg version="1.1" id="Layer_1" xmlns="http://www.w3.org/2000/svg" xmlns:xlink="http://www.w3.org/1999/xlink" x="0px" y="0px"
	 viewBox="0 0 40 40" style="enable-background:new 0 0 40 40;" xml:space="preserve">
<style type="text/css">
	.st0{fill:#FFFFFF;}
</style>
<rect x="-0.1" y="0" width="40.2" height="40.1"/>
<g>
	<g>
		<g>
			
				<image style="overflow:visible;opacity:0.1;" width="171" height="171" xlink:href="C22386E7.png"  transform="matrix(0.24 0 0 0.24 -0.6097 -0.1297)">
			</image>
			<g>
				
					<image style="overflow:visible;opacity:0.1;" width="165" height="165" xlink:href="C22386E5.png"  transform="matrix(0.24 0 0 0.24 0.3503 0.8303)">
				</image>
				<g>
					<ellipse class="st0" cx="20.1" cy="20.5" rx="18.8" ry="18.8"/>
				</g>
			</g>
		</g>
		<g>
			<ellipse cx="20.1" cy="20.5" rx="17.4" ry="17.4"/>
			<path class="st0" d="M29.7,24.4c0.2-0.5,0.2-0.5,0.2-0.5c0.2-0.6,0.8-1.1,1.4-1.1l0.9,0c0.6,0,1.1-0.5,1.1-1.1l0-2.5
				c0-0.6-0.5-1.1-1.1-1.1l-0.9,0c-0.6,0-1.3-0.5-1.5-1l-0.4-1c-0.3-0.5-0.2-1.3,0.3-1.8l0.6-0.6c0.4-0.4,0.4-1.1,0-1.6l-1.8-1.8
				c-0.4-0.4-1.1-0.4-1.6,0l-0.6,0.6c-0.4,0.4-1.2,0.5-1.7,0.3c0,0,0,0-0.5-0.2c-0.5-0.2-0.5-0.2-0.5-0.2c-0.6-0.2-1.1-0.8-1.1-1.4
				l0-0.9c0-0.6-0.5-1.1-1.1-1.1l-2.5,0c-0.6,0-1.1,0.5-1.1,1.1l0,0.9c0,0.6-0.5,1.3-1,1.5l-1,0.4c-0.5,0.3-1.3,0.2-1.8-0.3
				l-0.6-0.6c-0.4-0.4-1.1-0.4-1.6,0l-1.8,1.8c-0.4,0.4-0.4,1.1,0,1.6l0.6,0.6c0.4,0.4,0.5,1.2,0.3,1.8c0,0,0,0-0.2,0.5
				c-0.2,0.5-0.2,0.5-0.2,0.5c-0.2,0.6-0.8,1.1-1.4,1.1l-0.9,0c-0.6,0-1.1,0.5-1.1,1.1l0,2.5c0,0.6,0.5,1.1,1.1,1.1l0.9,0
				c0.6,0,1.3,0.5,1.5,1l0.4,1c0.3,0.5,0.2,1.3-0.3,1.8l-0.6,0.6c-0.4,0.4-0.4,1.1,0,1.6l1.8,1.8c0.4,0.4,1.1,0.4,1.6,0l0.6-0.6
				c0.4-0.4,1.2-0.5,1.7-0.3c0,0,0,0,0.5,0.2c0.5,0.2,0.5,0.2,0.5,0.2c0.6,0.2,1.1,0.8,1.1,1.4l0,0.9c0,0.6,0.5,1.1,1.1,1.1l2.5,0
				c0.6,0,1.1-0.5,1.1-1.1l0-0.9c0-0.6,0.5-1.3,1-1.5l1-0.4c0.5-0.3,1.3-0.2,1.8,0.3l0.6,0.6c0.4,0.4,1.1,0.4,1.6,0l1.8-1.8
				c0.4-0.4,0.4-1.1,0-1.6l-0.6-0.6c-0.4-0.4-0.5-1.2-0.3-1.8C29.4,24.9,29.4,24.9,29.7,24.4z"/>
			<ellipse cx="20.1" cy="20.5" rx="4.4" ry="4.4"/>
		</g>
	</g>
</g>
</svg>
